<mxfile host="app.diagrams.net" modified="2024-03-30T16:09:03.175Z" agent="Mozilla/5.0 (Windows NT 10.0; Win64; x64) AppleWebKit/537.36 (KHTML, like Gecko) Chrome/123.0.0.0 Safari/537.36" etag="evnCtvrIHjxcCn9rv0iq" version="24.2.1" type="google">
  <diagram name="Pagina-1" id="fbzcrpt9cKPLOgSUsJoJ">
    <mxGraphModel grid="1" page="1" gridSize="10" guides="1" tooltips="1" connect="1" arrows="1" fold="1" pageScale="1" pageWidth="827" pageHeight="1169" math="0" shadow="0">
      <root>
        <mxCell id="0" />
        <mxCell id="1" parent="0" />
        <mxCell id="TbWSZ086613Tpvn27Krm-7" value="" style="rounded=0;whiteSpace=wrap;html=1;fillColor=#d5e8d4;strokeColor=#82b366;" vertex="1" parent="1">
          <mxGeometry x="240" y="70" width="1090" height="325" as="geometry" />
        </mxCell>
        <mxCell id="TbWSZ086613Tpvn27Krm-3" value="" style="shape=cylinder3;whiteSpace=wrap;html=1;boundedLbl=1;backgroundOutline=1;size=15;" vertex="1" parent="1">
          <mxGeometry x="330" y="225" width="60" height="80" as="geometry" />
        </mxCell>
        <mxCell id="TbWSZ086613Tpvn27Krm-4" value="CUSTOMER_PROJECT_&lt;br&gt;SRC_2022/23/24_DIM_COMPANY (3 CARICAMENTI)" style="text;html=1;align=center;verticalAlign=middle;whiteSpace=wrap;rounded=0;" vertex="1" parent="1">
          <mxGeometry x="265" y="310" width="190" height="50" as="geometry" />
        </mxCell>
        <mxCell id="TbWSZ086613Tpvn27Krm-16" value="" style="endArrow=classic;html=1;rounded=0;" edge="1" parent="1">
          <mxGeometry width="50" height="50" relative="1" as="geometry">
            <mxPoint x="391" y="269.5000000000001" as="sourcePoint" />
            <mxPoint x="461" y="270" as="targetPoint" />
          </mxGeometry>
        </mxCell>
        <mxCell id="TbWSZ086613Tpvn27Krm-18" value="AGGIUNTA SESSION_TAG" style="rounded=1;whiteSpace=wrap;html=1;" vertex="1" parent="1">
          <mxGeometry x="465" y="235" width="166" height="70" as="geometry" />
        </mxCell>
        <mxCell id="TbWSZ086613Tpvn27Krm-19" value="Full Refresh" style="ellipse;shape=cloud;whiteSpace=wrap;html=1;" vertex="1" parent="1">
          <mxGeometry x="728" y="100" width="120" height="80" as="geometry" />
        </mxCell>
        <mxCell id="TbWSZ086613Tpvn27Krm-22" value="" style="endArrow=classic;html=1;rounded=0;" edge="1" parent="1">
          <mxGeometry width="50" height="50" relative="1" as="geometry">
            <mxPoint x="631" y="269.5000000000001" as="sourcePoint" />
            <mxPoint x="701" y="270" as="targetPoint" />
          </mxGeometry>
        </mxCell>
        <mxCell id="TbWSZ086613Tpvn27Krm-23" value="TRUNCATE TABELLA DI DESTINAZIONE" style="rounded=1;whiteSpace=wrap;html=1;" vertex="1" parent="1">
          <mxGeometry x="705" y="235" width="166" height="70" as="geometry" />
        </mxCell>
        <mxCell id="TbWSZ086613Tpvn27Krm-24" value="" style="endArrow=classic;html=1;rounded=0;" edge="1" parent="1">
          <mxGeometry width="50" height="50" relative="1" as="geometry">
            <mxPoint x="871" y="269.5000000000001" as="sourcePoint" />
            <mxPoint x="941" y="270" as="targetPoint" />
          </mxGeometry>
        </mxCell>
        <mxCell id="TbWSZ086613Tpvn27Krm-25" value="INSERIMENTO DI TUTTE LE RIGHE" style="rounded=1;whiteSpace=wrap;html=1;" vertex="1" parent="1">
          <mxGeometry x="945" y="235" width="166" height="70" as="geometry" />
        </mxCell>
        <mxCell id="TbWSZ086613Tpvn27Krm-26" value="" style="endArrow=classic;html=1;rounded=0;" edge="1" parent="1">
          <mxGeometry width="50" height="50" relative="1" as="geometry">
            <mxPoint x="1111" y="274.5000000000001" as="sourcePoint" />
            <mxPoint x="1181" y="275" as="targetPoint" />
          </mxGeometry>
        </mxCell>
        <mxCell id="TbWSZ086613Tpvn27Krm-27" value="" style="shape=cylinder3;whiteSpace=wrap;html=1;boundedLbl=1;backgroundOutline=1;size=15;" vertex="1" parent="1">
          <mxGeometry x="1190" y="230" width="60" height="80" as="geometry" />
        </mxCell>
        <mxCell id="TbWSZ086613Tpvn27Krm-28" value="ODS_SRC_DIM_COMPANY" style="text;html=1;align=center;verticalAlign=middle;whiteSpace=wrap;rounded=0;" vertex="1" parent="1">
          <mxGeometry x="1138" y="345" width="170" as="geometry" />
        </mxCell>
        <mxCell id="TbWSZ086613Tpvn27Krm-33" value="" style="rounded=0;whiteSpace=wrap;html=1;fillColor=#eeeeee;strokeColor=#36393d;" vertex="1" parent="1">
          <mxGeometry x="90" y="440" width="1449.5" height="370" as="geometry" />
        </mxCell>
        <mxCell id="3fzzuc_53nEdFvoVnNAe-83" value="" style="edgeStyle=orthogonalEdgeStyle;rounded=0;orthogonalLoop=1;jettySize=auto;html=1;" edge="1" parent="1" source="3fzzuc_53nEdFvoVnNAe-84">
          <mxGeometry relative="1" as="geometry">
            <mxPoint x="289.5" y="623.75" as="targetPoint" />
          </mxGeometry>
        </mxCell>
        <mxCell id="3fzzuc_53nEdFvoVnNAe-84" value="" style="shape=cylinder3;whiteSpace=wrap;html=1;boundedLbl=1;backgroundOutline=1;size=15;" vertex="1" parent="1">
          <mxGeometry x="179.5" y="583.75" width="60" height="80" as="geometry" />
        </mxCell>
        <mxCell id="3fzzuc_53nEdFvoVnNAe-85" value="ODS_SRC_DIM_COMPANY" style="text;html=1;align=center;verticalAlign=middle;whiteSpace=wrap;rounded=0;" vertex="1" parent="1">
          <mxGeometry x="129.5" y="698.75" width="170" as="geometry" />
        </mxCell>
        <mxCell id="3fzzuc_53nEdFvoVnNAe-87" value="" style="edgeStyle=orthogonalEdgeStyle;rounded=0;orthogonalLoop=1;jettySize=auto;html=1;" edge="1" parent="1" source="3fzzuc_53nEdFvoVnNAe-88" target="3fzzuc_53nEdFvoVnNAe-91">
          <mxGeometry relative="1" as="geometry">
            <mxPoint x="494.5" y="623.75" as="targetPoint" />
            <Array as="points" />
          </mxGeometry>
        </mxCell>
        <mxCell id="3fzzuc_53nEdFvoVnNAe-88" value="INSERIMENTO SESSION_TAG" style="whiteSpace=wrap;html=1;" vertex="1" parent="1">
          <mxGeometry x="294.5" y="593.75" width="120" height="60" as="geometry" />
        </mxCell>
        <mxCell id="3fzzuc_53nEdFvoVnNAe-93" value="" style="edgeStyle=orthogonalEdgeStyle;rounded=0;orthogonalLoop=1;jettySize=auto;html=1;" edge="1" parent="1" source="3fzzuc_53nEdFvoVnNAe-91" target="3fzzuc_53nEdFvoVnNAe-98">
          <mxGeometry relative="1" as="geometry">
            <mxPoint x="686.5" y="620" as="targetPoint" />
          </mxGeometry>
        </mxCell>
        <mxCell id="3fzzuc_53nEdFvoVnNAe-91" value="CHECK PK SU COMPANY_COD" style="whiteSpace=wrap;html=1;" vertex="1" parent="1">
          <mxGeometry x="529.5" y="590" width="120" height="60" as="geometry" />
        </mxCell>
        <mxCell id="3fzzuc_53nEdFvoVnNAe-97" value="" style="edgeStyle=orthogonalEdgeStyle;rounded=0;orthogonalLoop=1;jettySize=auto;html=1;" edge="1" parent="1" source="3fzzuc_53nEdFvoVnNAe-98" target="3fzzuc_53nEdFvoVnNAe-100">
          <mxGeometry relative="1" as="geometry" />
        </mxCell>
        <mxCell id="3fzzuc_53nEdFvoVnNAe-98" value="TRUNCATE TABELLA DI DESTINAZIONE" style="whiteSpace=wrap;html=1;" vertex="1" parent="1">
          <mxGeometry x="749.5" y="592.5" width="120" height="60" as="geometry" />
        </mxCell>
        <mxCell id="tMC4oISpfsa5Jp4Vi0NR-3" value="" style="edgeStyle=orthogonalEdgeStyle;rounded=0;orthogonalLoop=1;jettySize=auto;html=1;" edge="1" parent="1" source="3fzzuc_53nEdFvoVnNAe-100" target="tMC4oISpfsa5Jp4Vi0NR-2">
          <mxGeometry relative="1" as="geometry" />
        </mxCell>
        <mxCell id="3fzzuc_53nEdFvoVnNAe-100" value="INSERIMENTO DI TUTTE LE RIGHE" style="whiteSpace=wrap;html=1;" vertex="1" parent="1">
          <mxGeometry x="942.5" y="592.5" width="120" height="60" as="geometry" />
        </mxCell>
        <mxCell id="3fzzuc_53nEdFvoVnNAe-103" value="" style="shape=cylinder3;whiteSpace=wrap;html=1;boundedLbl=1;backgroundOutline=1;size=15;" vertex="1" parent="1">
          <mxGeometry x="1386.5" y="582.5" width="60" height="80" as="geometry" />
        </mxCell>
        <mxCell id="3fzzuc_53nEdFvoVnNAe-104" value="GRM4_DIM_COMPANY_DWA" style="text;html=1;align=center;verticalAlign=middle;whiteSpace=wrap;rounded=0;" vertex="1" parent="1">
          <mxGeometry x="1319" y="667.5" width="195" height="30" as="geometry" />
        </mxCell>
        <mxCell id="tMC4oISpfsa5Jp4Vi0NR-5" style="edgeStyle=orthogonalEdgeStyle;rounded=0;orthogonalLoop=1;jettySize=auto;html=1;exitX=1;exitY=0.5;exitDx=0;exitDy=0;" edge="1" parent="1" source="tMC4oISpfsa5Jp4Vi0NR-2" target="3fzzuc_53nEdFvoVnNAe-103">
          <mxGeometry relative="1" as="geometry" />
        </mxCell>
        <mxCell id="tMC4oISpfsa5Jp4Vi0NR-2" value="INSERIMENTO RIGA CON VALORI FITTIZI" style="whiteSpace=wrap;html=1;" vertex="1" parent="1">
          <mxGeometry x="1142.5" y="592.5" width="120" height="60" as="geometry" />
        </mxCell>
        <mxCell id="OaUH_onNEUUnEDYbHzgn-1" value="Full Refresh" style="ellipse;shape=cloud;whiteSpace=wrap;html=1;" vertex="1" parent="1">
          <mxGeometry x="740" y="470" width="120" height="80" as="geometry" />
        </mxCell>
      </root>
    </mxGraphModel>
  </diagram>
</mxfile>
